<svg xmlns="http://www.w3.org/2000/svg" version="1.1" xmlns:xlink="http://www.w3.org/1999/xlink" xmlns:svgjs="http://svgjs.dev/svgjs" width="1000" height="1000" viewBox="0 0 1000 1000"><rect width="1000" height="1000" fill="#ffffff"></rect><g transform="matrix(0.7,0,0,0.7,149.57575757575756,371.90530879789264)"><svg viewBox="0 0 396 145" data-background-color="#ffffff" preserveAspectRatio="xMidYMid meet" height="366" width="1000" xmlns="http://www.w3.org/2000/svg" xmlns:xlink="http://www.w3.org/1999/xlink"><g id="tight-bounds" transform="matrix(1,0,0,1,0.2400000000000091,-0.0030045889712653207)"><svg viewBox="0 0 395.52 145.00600917794253" height="145.00600917794253" width="395.52"><g><svg viewBox="0 0 670.0472588381222 245.65351679999995" height="145.00600917794253" width="395.52"><g transform="matrix(1,0,0,1,272.5496588381223,31.133069178714948)"><svg viewBox="0 0 397.4975999999999 183.38737844257005" height="183.38737844257005" width="397.4975999999999"><g><svg viewBox="0 0 397.4975999999999 183.38737844257005" height="183.38737844257005" width="397.4975999999999"><g><rect width="397.4975999999999" height="10.27432625856273" x="0" y="126.03327814190611" fill="#000000" opacity="1" stroke-width="0" stroke="transparent" fill-opacity="1" class="rect-o-0" data-fill-palette-color="primary" rx="1%" id="o-0" data-palette-color="#969696"></rect></g><g transform="matrix(1,0,0,1,0.9887999999999693,0)"><svg viewBox="0 0 395.52 113.93001422475106" height="113.93001422475106" width="395.52"><g transform="matrix(1,0,0,1,0,0)"><svg width="395.52" viewBox="0.75 -40.5 140.58999633789062 40.5" height="113.93001422475106" data-palette-color="#969696"><path d="M13.25 0L7.6 0 7.6-36.3 0.75-36.3 0.75-40.5 19.9-40.5 19.9-36.3 13.25-36.3 13.25 0ZM29.45 0L23.8 0 23.8-40.5 31.95-40.5Q36-40.5 38.65-39.43 41.3-38.35 42.57-35.98 43.85-33.6 43.85-29.75L43.85-29.75Q43.85-27.4 43.35-25.48 42.85-23.55 41.75-22.23 40.65-20.9 38.85-20.3L38.85-20.3 44.6 0 39.15 0 33.85-19 29.45-19 29.45 0ZM29.45-36.45L29.45-23.05 31.6-23.05Q34-23.05 35.5-23.65 37-24.25 37.7-25.7 38.4-27.15 38.4-29.75L38.4-29.75Q38.4-33.3 37.1-34.88 35.8-36.45 31.95-36.45L31.95-36.45 29.45-36.45ZM52.85 0L47.55 0 56.15-40.5 61.6-40.5 70.25 0 64.9 0 63.05-10.2 54.8-10.2 52.85 0ZM58.9-32.5L55.55-14.25 62.3-14.25 58.9-32.5ZM83.59 0L74.34 0 74.34-40.5 83.14-40.5Q87.64-40.5 90.27-39.13 92.89-37.75 94.02-35 95.14-32.25 95.14-28.15L95.14-28.15 95.14-13.25Q95.14-8.95 94.02-6 92.89-3.05 90.37-1.53 87.84 0 83.59 0L83.59 0ZM79.99-36.3L79.99-4.05 83.19-4.05Q86.29-4.05 87.59-5.25 88.89-6.45 89.17-8.75 89.44-11.05 89.44-14.3L89.44-14.3 89.44-27.45Q89.44-30.6 89.04-32.55 88.64-34.5 87.29-35.4 85.94-36.3 83.04-36.3L83.04-36.3 79.99-36.3ZM116.49 0L100.69 0 100.69-40.5 116.39-40.5 116.39-36.3 106.34-36.3 106.34-22.9 114.49-22.9 114.49-18.9 106.34-18.9 106.34-4.05 116.49-4.05 116.49 0ZM132.64 0L127.24 0 127.24-14.3 118.49-40.5 123.74-40.5 129.94-20.95 136.04-40.5 141.34-40.5 132.64-14.3 132.64 0Z" opacity="1" transform="matrix(1,0,0,1,0,0)" fill="#000000" class="undefined-text-0" data-fill-palette-color="primary" id="text-0"></path></svg></g></svg></g><g transform="matrix(1,0,0,1,0.9887999999999693,148.4108683176239)"><svg viewBox="0 0 395.52 34.976510124946145" height="34.976510124946145" width="395.52"><g transform="matrix(1,0,0,1,0,0)"><svg width="395.52" viewBox="3.9000000953674316 -37 464.1499938964844 41.04999923706055" height="34.976510124946145" data-palette-color="#505050"><path d="M25.15-14.95L25.15 0 22.65 0 22.65-14.5Q22.65-19.5 21.23-21.83 19.8-24.15 16.7-24.15L16.7-24.15Q14.5-24.15 12.38-23.1 10.25-22.05 8.68-20.23 7.1-18.4 6.4-16.1L6.4-16.1 6.4 0 3.9 0 3.9-26 6.25-26 6.25-19.8Q7.3-21.8 9.05-23.28 10.8-24.75 12.95-25.6 15.1-26.45 17.4-26.45L17.4-26.45Q19.55-26.45 21.03-25.68 22.5-24.9 23.43-23.45 24.35-22 24.75-19.85 25.15-17.7 25.15-14.95L25.15-14.95ZM43.75 0.5L43.75 0.5Q41 0.5 38.65-0.58 36.3-1.65 34.57-3.53 32.85-5.4 31.87-7.88 30.9-10.35 30.9-13.1L30.9-13.1Q30.9-16.8 32.55-19.8 34.2-22.8 37.1-24.63 40-26.45 43.6-26.45L43.6-26.45Q47.3-26.45 50.15-24.6 53-22.75 54.67-19.73 56.35-16.7 56.35-13.1L56.35-13.1Q56.35-12.8 56.35-12.5 56.35-12.2 56.3-12L56.3-12 33.5-12Q33.7-9.05 35.15-6.65 36.6-4.25 38.87-2.88 41.15-1.5 43.85-1.5L43.85-1.5Q46.55-1.5 48.95-2.9 51.35-4.3 52.3-6.5L52.3-6.5 54.5-5.9Q53.75-4.05 52.12-2.6 50.5-1.15 48.32-0.33 46.15 0.5 43.75 0.5ZM33.4-13.95L33.4-13.95 53.95-13.95Q53.75-17 52.35-19.35 50.95-21.7 48.67-23.05 46.4-24.4 43.65-24.4L43.65-24.4Q40.9-24.4 38.65-23.05 36.4-21.7 35-19.35 33.6-17 33.4-13.95ZM84.2-2.75L94.09-26 96.59-26 85.34 0 83.15 0 77.4-13.55 71.65 0 69.45 0 58.2-26 60.65-26 70.59-2.75 75.95-15.45 71.59-25.95 73.84-25.95 77.4-17.4 80.9-25.95 83.2-25.95 78.84-15.45 84.2-2.75ZM122.19 0L119.59 0 108.74-26 111.39-26 120.94-2.65 130.54-26 133.04-26 122.19 0ZM148.14 0.5L148.14 0.5Q145.39 0.5 143.04-0.58 140.69-1.65 138.96-3.53 137.24-5.4 136.26-7.88 135.29-10.35 135.29-13.1L135.29-13.1Q135.29-16.8 136.94-19.8 138.59-22.8 141.49-24.63 144.39-26.45 147.99-26.45L147.99-26.45Q151.69-26.45 154.54-24.6 157.39-22.75 159.06-19.73 160.74-16.7 160.74-13.1L160.74-13.1Q160.74-12.8 160.74-12.5 160.74-12.2 160.69-12L160.69-12 137.89-12Q138.09-9.05 139.54-6.65 140.99-4.25 143.26-2.88 145.54-1.5 148.24-1.5L148.24-1.5Q150.94-1.5 153.34-2.9 155.74-4.3 156.69-6.5L156.69-6.5 158.89-5.9Q158.14-4.05 156.51-2.6 154.89-1.15 152.71-0.33 150.54 0.5 148.14 0.5ZM137.79-13.95L137.79-13.95 158.34-13.95Q158.14-17 156.74-19.35 155.34-21.7 153.06-23.05 150.79-24.4 148.04-24.4L148.04-24.4Q145.29-24.4 143.04-23.05 140.79-21.7 139.39-19.35 137.99-17 137.79-13.95ZM187.49-14.95L187.49 0 184.99 0 184.99-14.5Q184.99-19.3 183.34-21.73 181.69-24.15 178.54-24.15L178.54-24.15Q176.49-24.15 174.44-23.1 172.39-22.05 170.89-20.23 169.39-18.4 168.74-16.1L168.74-16.1 168.74 0 166.24 0 166.24-36.5 168.74-36.5 168.74-19.8Q170.34-22.85 173.19-24.65 176.04-26.45 179.24-26.45L179.24-26.45Q181.44-26.45 182.99-25.65 184.54-24.85 185.54-23.35 186.54-21.85 187.01-19.75 187.49-17.65 187.49-14.95L187.49-14.95ZM197.53 0L195.03 0 195.03-26 197.53-26 197.53 0ZM197.53-31.9L195.03-31.9 195.03-36.5 197.53-36.5 197.53-31.9ZM216.43 0.5L216.43 0.5Q213.73 0.5 211.38-0.58 209.03-1.65 207.28-3.53 205.53-5.4 204.56-7.85 203.58-10.3 203.58-13.1L203.58-13.1Q203.58-16.85 205.23-19.85 206.88-22.85 209.78-24.65 212.68-26.45 216.38-26.45L216.38-26.45Q219.93-26.45 222.63-24.83 225.33-23.2 226.68-20.4L226.68-20.4 224.23-19.6Q223.08-21.75 220.96-22.98 218.83-24.2 216.28-24.2L216.28-24.2Q213.43-24.2 211.13-22.75 208.83-21.3 207.46-18.78 206.08-16.25 206.08-13.1L206.08-13.1Q206.08-10 207.48-7.4 208.88-4.8 211.21-3.28 213.53-1.75 216.33-1.75L216.33-1.75Q218.13-1.75 219.86-2.43 221.58-3.1 222.86-4.2 224.13-5.3 224.53-6.55L224.53-6.55 226.98-5.85Q226.33-4 224.73-2.58 223.13-1.15 221.01-0.33 218.88 0.5 216.43 0.5ZM230.48-7.5L230.48-7.5Q230.48-9.85 231.88-11.58 233.28-13.3 235.73-14.28 238.18-15.25 241.38-15.25L241.38-15.25Q243.38-15.25 245.53-14.9 247.68-14.55 249.38-13.95L249.38-13.95 249.38-16.4Q249.38-20 247.3-22.15 245.23-24.3 241.58-24.3L241.58-24.3Q239.63-24.3 237.53-23.5 235.43-22.7 233.23-21.2L233.23-21.2 232.18-23Q234.73-24.7 237.1-25.58 239.48-26.45 241.83-26.45L241.83-26.45Q246.48-26.45 249.18-23.7 251.88-20.95 251.88-16.2L251.88-16.2 251.88-3.3Q251.88-2.7 252.15-2.4 252.43-2.1 252.98-2.05L252.98-2.05 252.98 0Q252.53 0.05 252.23 0.05 251.93 0.05 251.73 0.05L251.73 0.05Q250.78-0.1 250.25-0.75 249.73-1.4 249.68-2.2L249.68-2.2 249.68-4.25Q247.88-2 245.05-0.75 242.23 0.5 239.13 0.5L239.13 0.5Q236.68 0.5 234.7-0.55 232.73-1.6 231.6-3.43 230.48-5.25 230.48-7.5ZM248.38-5.35L248.38-5.35Q248.88-6 249.13-6.6 249.38-7.2 249.38-7.7L249.38-7.7 249.38-12Q247.58-12.7 245.63-13.05 243.68-13.4 241.63-13.4L241.63-13.4Q237.73-13.4 235.3-11.85 232.88-10.3 232.88-7.65L232.88-7.65Q232.88-6 233.73-4.6 234.58-3.2 236.1-2.35 237.63-1.5 239.63-1.5L239.63-1.5Q242.43-1.5 244.8-2.58 247.18-3.65 248.38-5.35ZM259.68-4.4L259.68-36.5 262.23-36.5 262.23-5.15Q262.23-3.35 262.98-2.68 263.73-2 264.93-2L264.93-2Q265.73-2 266.58-2.15 267.43-2.3 268.08-2.55L268.08-2.55 268.58-0.5Q267.73-0.2 266.48 0.05 265.23 0.3 264.33 0.3L264.33 0.3Q262.23 0.3 260.95-0.98 259.68-2.25 259.68-4.4L259.68-4.4ZM274.72 4.05L273.37 4.05 274.12 0.1 273.22 0.1 273.22-4.25 275.77-4.25 275.77 0.1 274.72 4.05ZM318.42-14.95L318.42 0 315.92 0 315.92-14.5Q315.92-19.5 314.49-21.83 313.07-24.15 309.97-24.15L309.97-24.15Q307.77-24.15 305.64-23.1 303.52-22.05 301.94-20.23 300.37-18.4 299.67-16.1L299.67-16.1 299.67 0 297.17 0 297.17-26 299.52-26 299.52-19.8Q300.57-21.8 302.32-23.28 304.07-24.75 306.22-25.6 308.37-26.45 310.67-26.45L310.67-26.45Q312.82-26.45 314.29-25.68 315.77-24.9 316.69-23.45 317.62-22 318.02-19.85 318.42-17.7 318.42-14.95L318.42-14.95ZM337.02 0.5L337.02 0.5Q334.27 0.5 331.92-0.58 329.57-1.65 327.84-3.53 326.12-5.4 325.14-7.88 324.17-10.35 324.17-13.1L324.17-13.1Q324.17-16.8 325.82-19.8 327.47-22.8 330.37-24.63 333.27-26.45 336.87-26.45L336.87-26.45Q340.57-26.45 343.42-24.6 346.27-22.75 347.94-19.73 349.62-16.7 349.62-13.1L349.62-13.1Q349.62-12.8 349.62-12.5 349.62-12.2 349.57-12L349.57-12 326.77-12Q326.97-9.05 328.42-6.65 329.87-4.25 332.14-2.88 334.42-1.5 337.12-1.5L337.12-1.5Q339.82-1.5 342.22-2.9 344.62-4.3 345.57-6.5L345.57-6.5 347.77-5.9Q347.02-4.05 345.39-2.6 343.77-1.15 341.59-0.33 339.42 0.5 337.02 0.5ZM326.67-13.95L326.67-13.95 347.22-13.95Q347.02-17 345.62-19.35 344.22-21.7 341.94-23.05 339.67-24.4 336.92-24.4L336.92-24.4Q334.17-24.4 331.92-23.05 329.67-21.7 328.27-19.35 326.87-17 326.67-13.95ZM377.46-2.75L387.36-26 389.86-26 378.61 0 376.41 0 370.66-13.55 364.91 0 362.71 0 351.46-26 353.91-26 363.86-2.75 369.21-15.45 364.86-25.95 367.11-25.95 370.66-17.4 374.16-25.95 376.46-25.95 372.11-15.45 377.46-2.75ZM406.41-4.4L406.41-36.5 408.96-36.5 408.96-5.15Q408.96-3.35 409.71-2.68 410.46-2 411.66-2L411.66-2Q412.46-2 413.31-2.15 414.16-2.3 414.81-2.55L414.81-2.55 415.31-0.5Q414.46-0.2 413.21 0.05 411.96 0.3 411.06 0.3L411.06 0.3Q408.96 0.3 407.68-0.98 406.41-2.25 406.41-4.4L406.41-4.4ZM421.66 0L419.16 0 419.16-26 421.66-26 421.66 0ZM421.66-31.9L419.16-31.9 419.16-36.5 421.66-36.5 421.66-31.9ZM433.15 0L430.65 0 430.65-23.95 427-23.95 427-26 430.65-26 430.65-26.85Q430.65-30 431.55-32.3 432.45-34.6 434.1-35.8 435.75-37 438-37L438-37Q439.5-37 440.9-36.55 442.3-36.1 443.2-35.35L443.2-35.35 442.3-33.55Q441.65-34.15 440.6-34.48 439.55-34.8 438.45-34.8L438.45-34.8Q435.9-34.8 434.53-32.77 433.15-30.75 433.15-26.9L433.15-26.9 433.15-26 440.55-26 440.55-23.95 433.15-23.95 433.15 0ZM455.45 0.5L455.45 0.5Q452.7 0.5 450.35-0.58 448-1.65 446.28-3.53 444.55-5.4 443.58-7.88 442.6-10.35 442.6-13.1L442.6-13.1Q442.6-16.8 444.25-19.8 445.9-22.8 448.8-24.63 451.7-26.45 455.3-26.45L455.3-26.45Q459-26.45 461.85-24.6 464.7-22.75 466.38-19.73 468.05-16.7 468.05-13.1L468.05-13.1Q468.05-12.8 468.05-12.5 468.05-12.2 468-12L468-12 445.2-12Q445.4-9.05 446.85-6.65 448.3-4.25 450.58-2.88 452.85-1.5 455.55-1.5L455.55-1.5Q458.25-1.5 460.65-2.9 463.05-4.3 464-6.5L464-6.5 466.2-5.9Q465.45-4.05 463.83-2.6 462.2-1.15 460.03-0.33 457.85 0.5 455.45 0.5ZM445.1-13.95L445.1-13.95 465.65-13.95Q465.45-17 464.05-19.35 462.65-21.7 460.38-23.05 458.1-24.4 455.35-24.4L455.35-24.4Q452.6-24.4 450.35-23.05 448.1-21.7 446.7-19.35 445.3-17 445.1-13.95Z" opacity="1" transform="matrix(1,0,0,1,0,0)" fill="#000000" class="undefined-text-1" data-fill-palette-color="secondary" id="text-1"></path></svg></g></svg></g></svg></g></svg></g><g><svg viewBox="0 0 245.65351679999995 245.65351679999995" height="245.65351679999995" width="245.65351679999995"><g><svg xmlns="http://www.w3.org/2000/svg" xmlns:xlink="http://www.w3.org/1999/xlink" version="1.0" x="0" y="0" viewBox="1 1 48 48" enable-background="new 0 0 50 50" xml:space="preserve" height="245.65351679999995" width="245.65351679999995" class="icon-icon-0" data-fill-palette-color="accent" id="icon-0"><g fill="#505050" data-fill-palette-color="accent"><g fill="#505050" data-fill-palette-color="accent"><rect x="1" y="1" fill="#000000" width="23" height="5" data-fill-palette-color="accent"></rect><rect x="1" y="10" fill="#000000" width="23" height="5" data-fill-palette-color="accent"></rect><rect x="1" y="19" fill="#000000" width="23" height="5" data-fill-palette-color="accent"></rect></g><g fill="#505050" data-fill-palette-color="accent"><rect x="26" y="26" fill="#000000" width="23" height="5" data-fill-palette-color="accent"></rect><rect x="26" y="35" fill="#000000" width="23" height="5" data-fill-palette-color="accent"></rect><rect x="26" y="44" fill="#000000" width="23" height="5" data-fill-palette-color="accent"></rect></g><g fill="#505050" data-fill-palette-color="accent"><rect x="19" y="26" fill="#000000" width="5" height="23" data-fill-palette-color="accent"></rect><rect x="10" y="26" fill="#000000" width="5" height="23" data-fill-palette-color="accent"></rect><rect x="1" y="26" fill="#000000" width="5" height="23" data-fill-palette-color="accent"></rect></g><g fill="#505050" data-fill-palette-color="accent"><rect x="44" y="1" fill="#000000" width="5" height="23" data-fill-palette-color="accent"></rect><rect x="35" y="1" fill="#000000" width="5" height="23" data-fill-palette-color="accent"></rect><rect x="26" y="1" fill="#000000" width="5" height="23" data-fill-palette-color="accent"></rect></g></g></svg></g></svg></g></svg></g><defs></defs></svg><rect width="395.52" height="145.00600917794253" fill="none" stroke="none" visibility="hidden"></rect></g></svg></g></svg>