<?xml version="1.0" encoding="iso-8859-1"?>
<!-- Uploaded to: SVG Repo, www.svgrepo.com, Generator: SVG Repo Mixer Tools -->
<svg fill="#ffa500" height="800px" width="800px" version="1.1" id="Layer_1" xmlns="http://www.w3.org/2000/svg" xmlns:xlink="http://www.w3.org/1999/xlink" 
	 viewBox="0 0 512 512" xml:space="preserve">
<g>
	<g>
		<path d="M256,0C114.615,0,0,114.615,0,256s114.615,256,256,256c141.386,0,256-114.615,256-256S397.386,0,256,0z M117.605,117.07
			l121.263,67.368l-19.63,35.335L97.975,152.405L117.605,117.07z M195.368,235.789c14.862,0,26.947,12.089,26.947,26.947
			c-0.005,14.861-12.094,26.947-26.947,26.947c-14.859,0-26.947-12.089-26.947-26.947
			C168.421,247.878,180.51,235.789,195.368,235.789z M304.133,410.412c-8.422-26.124-24.616-39.369-48.133-39.369
			c-23.442,0-39.215,12.963-48.22,39.632l-38.298-12.932c7.687-22.761,19.829-40.148,36.093-51.676
			c14.256-10.105,31.693-15.446,50.424-15.446c41.231,0,72.796,24.561,86.603,67.385L304.133,410.412z M316.632,289.684
			c-14.859,0-26.947-12.089-26.947-26.947c0-14.859,12.089-26.947,26.947-26.947c14.861,0,26.947,12.089,26.947,26.947
			C343.574,277.598,331.485,289.684,316.632,289.684z M292.763,219.772l-19.63-35.335l121.263-67.368l19.63,35.335L292.763,219.772z
			"/>
	</g>
</g>
</svg>