<?xml version="1.0" encoding="iso-8859-1"?>
<!-- Uploaded to: SVG Repo, www.svgrepo.com, Generator: SVG Repo Mixer Tools -->
<!DOCTYPE svg PUBLIC "-//W3C//DTD SVG 1.1//EN" "http://www.w3.org/Graphics/SVG/1.1/DTD/svg11.dtd">
<svg fill="#ff0000" version="1.1" id="Capa_1" xmlns="http://www.w3.org/2000/svg" xmlns:xlink="http://www.w3.org/1999/xlink" 
	 width="800px" height="800px" viewBox="0 0 492.734 492.734"
	 xml:space="preserve">
<g>
	<g>
		<path d="M42.025,492.734l101.294-108.922h307.391V0H42.694L42.025,492.734z M357.127,160.951
			c19.096,0,34.572,15.479,34.572,34.572c0,19.096-15.48,34.572-34.572,34.572c-19.093,0-34.571-15.479-34.571-34.572
			C322.555,176.429,338.035,160.951,357.127,160.951z M246.701,160.951c19.096,0,34.572,15.479,34.572,34.572
			c0,19.096-15.48,34.572-34.572,34.572s-34.573-15.479-34.573-34.572C212.129,176.429,227.609,160.951,246.701,160.951z
			 M136.274,160.951c19.096,0,34.572,15.479,34.572,34.572c0,19.096-15.479,34.572-34.572,34.572
			c-19.095,0-34.572-15.479-34.572-34.572C101.702,176.429,117.182,160.951,136.274,160.951z"/>
	</g>
</g>
</svg>