<?xml version="1.0" encoding="iso-8859-1"?>
<!-- Uploaded to: SVG Repo, www.svgrepo.com, Generator: SVG Repo Mixer Tools -->
<svg fill="#dddd00" height="800px" width="800px" version="1.1" id="Layer_1" xmlns="http://www.w3.org/2000/svg" xmlns:xlink="http://www.w3.org/1999/xlink" 
	 viewBox="0 0 511.755 511.755" xml:space="preserve">
<g>
	<g>
		<path d="M122.047,242.736c-22.699,39.232-3.371,87.168,28.224,118.741c21.035,21.035,46.101,34.347,70.613,37.461
			c17.365,2.24,33.579-1.216,47.915-9.451L122.047,242.736z"/>
	</g>
</g>
<g>
	<g>
		<path d="M436.891,74.866c-99.819-99.819-262.208-99.819-362.027,0c-99.819,99.797-99.819,262.229,0,362.027
			c49.899,49.92,115.456,74.859,181.013,74.859s131.115-24.939,181.013-74.859C536.709,337.095,536.709,174.663,436.891,74.866z
			 M191.877,149.212h42.667v-42.667c0-11.776,9.536-21.333,21.333-21.333s21.333,9.557,21.333,21.333v64
			c0,11.776-9.536,21.333-21.333,21.333h-64c-11.797,0-21.333-9.557-21.333-21.333S180.08,149.212,191.877,149.212z
			 M316.208,406.727c-23.232,23.232-52.843,35.584-84.672,35.584c-5.312,0-10.667-0.341-16.085-1.045
			c-33.792-4.331-67.648-21.952-95.339-49.621c-61.184-61.184-67.52-143.659-15.083-196.096c8.32-8.341,21.824-8.341,30.165,0
			l181.013,181.013c4.16,4.16,6.251,9.621,6.251,15.083C322.459,397.106,320.368,402.546,316.208,406.727z M405.211,277.212h-42.667
			v42.667c0,11.776-9.536,21.333-21.333,21.333s-21.333-9.557-21.333-21.333v-64c0-11.776,9.536-21.333,21.333-21.333h64
			c11.797,0,21.333,9.557,21.333,21.333C426.544,267.655,417.008,277.212,405.211,277.212z"/>
	</g>
</g>
</svg>