<?xml version="1.0" encoding="iso-8859-1"?>
<!-- Uploaded to: SVG Repo, www.svgrepo.com, Generator: SVG Repo Mixer Tools -->
<!DOCTYPE svg PUBLIC "-//W3C//DTD SVG 1.1//EN" "http://www.w3.org/Graphics/SVG/1.1/DTD/svg11.dtd">
<svg fill="#808080" version="1.1" id="Capa_1" xmlns="http://www.w3.org/2000/svg" xmlns:xlink="http://www.w3.org/1999/xlink" 
	 width="800px" height="800px" viewBox="0 0 410.758 410.758"
	 xml:space="preserve">
<g>
	<path d="M350.604,60.153C311.812,21.362,260.237,0,205.379,0C150.521,0,98.945,21.362,60.154,60.153S0,150.52,0,205.378
		c0,54.858,21.363,106.437,60.154,145.227c38.79,38.791,90.366,60.153,145.225,60.153c54.859,0,106.434-21.362,145.225-60.153
		c38.791-38.79,60.154-90.366,60.154-145.227C410.758,150.521,389.395,98.944,350.604,60.153z M255.626,121.808
		c16.955,0,30.749,13.794,30.749,30.749c0,16.955-13.794,30.749-30.749,30.749c-16.954,0-30.749-13.794-30.749-30.749
		C224.877,135.602,238.672,121.808,255.626,121.808z M155.131,121.808c16.955,0,30.749,13.794,30.749,30.749
		c0,16.955-13.794,30.749-30.749,30.749c-16.956,0-30.748-13.794-30.748-30.749C124.383,135.602,138.175,121.808,155.131,121.808z
		 M292.355,289.348c-7.299,3.916-16.391,1.174-20.309-6.125c-12.428-23.154-36.398-38.406-62.562-39.805
		c-26.392-1.408-52.002,11.326-66.799,33.23c-1.436,2.125-2.771,4.336-3.973,6.573c-3.92,7.302-13.014,10.041-20.311,6.123
		c-7.301-3.918-10.041-13.012-6.123-20.312c1.68-3.127,3.543-6.215,5.545-9.178c19.625-29.049,52.842-46.543,87.713-46.543
		c1.844,0,3.694,0.049,5.547,0.146c36.56,1.953,70.047,23.248,87.396,55.576C302.398,276.336,299.656,285.43,292.355,289.348z"/>
</g>
</svg>