<?xml version="1.0" encoding="iso-8859-1"?>
<!-- Uploaded to: SVG Repo, www.svgrepo.com, Generator: SVG Repo Mixer Tools -->
<svg fill="#dddd00" height="800px" width="800px" version="1.1" id="Layer_1" xmlns="http://www.w3.org/2000/svg" xmlns:xlink="http://www.w3.org/1999/xlink" 
	 viewBox="0 0 472.615 472.615" xml:space="preserve">
<g>
	<g>
		<path d="M236.308,0C105.799,0,0,105.798,0,236.308s105.799,236.308,236.308,236.308s236.308-105.798,236.308-236.308
			S366.816,0,236.308,0z M120.421,162.657c0-20.506,16.622-37.129,37.128-37.129s37.128,16.623,37.128,37.129
			c0,20.505-16.622,37.129-37.128,37.129C137.044,199.786,120.421,183.162,120.421,162.657z M236.308,398.028
			c-52.679,0-95.385-27.56-95.385-61.557s42.706-61.557,95.385-61.557c52.68,0,95.385,27.56,95.385,61.557
			S288.988,398.028,236.308,398.028z M315.066,199.786c-20.506,0-37.128-16.624-37.128-37.129c0-20.506,16.622-37.129,37.128-37.129
			s37.129,16.623,37.129,37.129C352.195,183.162,335.572,199.786,315.066,199.786z"/>
	</g>
</g>
</svg>